<?xml version="1.0" encoding="UTF-8" standalone="no"?>
<!DOCTYPE svg PUBLIC "-//W3C//DTD SVG 1.1//EN" "http://www.w3.org/Graphics/SVG/1.1/DTD/svg11.dtd">
<svg width="100%" height="100%" viewBox="0 0 40 40" version="1.1" xmlns="http://www.w3.org/2000/svg" xmlns:xlink="http://www.w3.org/1999/xlink" xml:space="preserve" xmlns:serif="http://www.serif.com/" style="fill-rule:evenodd;clip-rule:evenodd;stroke-linejoin:round;stroke-miterlimit:2;">
    <g transform="matrix(0.0624999,0,0,0.0624999,0.00142549,4.00003)">
        <path d="M488,192L336,192L336,248C336,287.7 303.7,320 264,320C224.3,320 192,287.7 192,248L192,126.4L127.1,165.4C107.8,176.9 96,197.8 96,220.2L96,267.5L16,313.7C0.7,322.5 -4.6,342.1 4.3,357.4L84.3,496C93.1,511.3 112.7,516.5 128,507.7L231.4,448L368,448C403.3,448 432,419.3 432,384L448,384C465.7,384 480,369.7 480,352L480,288L488,288C501.3,288 512,277.3 512,264L512,216C512,202.7 501.3,192 488,192ZM635.7,154.6L555.7,16C546.9,0.7 527.3,-4.5 512,4.3L408.6,64L306.4,64C294.4,64 282.7,67.4 272.5,73.7L239,94.6C229.6,100.4 224,110.7 224,121.7L224,248C224,270.1 241.9,288 264,288C286.1,288 304,270.1 304,248L304,160L488,160C518.9,160 544,185.1 544,216L544,244.5L624,198.3C639.3,189.4 644.5,169.9 635.7,154.6Z" style="fill:white;fill-rule:nonzero;"/>
    </g>
</svg>
