<?xml version="1.0" encoding="UTF-8" standalone="no"?>
<!DOCTYPE svg PUBLIC "-//W3C//DTD SVG 1.1//EN" "http://www.w3.org/Graphics/SVG/1.1/DTD/svg11.dtd">
<svg width="100%" height="100%" viewBox="0 0 32 32" version="1.1" xmlns="http://www.w3.org/2000/svg" xmlns:xlink="http://www.w3.org/1999/xlink" xml:space="preserve" xmlns:serif="http://www.serif.com/" style="fill-rule:evenodd;clip-rule:evenodd;stroke-linejoin:round;stroke-miterlimit:2;">
    <g transform="matrix(0.0624998,0,0,0.0624998,3.00004,8.9299e-05)">
        <path d="M207.9,15.2C208.7,19.9 224,109.7 224,144C224,196.3 196.2,233.6 155.1,248.6L168,486.7C168.7,500.4 157.8,512 144,512L80,512C66.3,512 55.3,500.5 56,486.7L68.9,248.6C27.7,233.6 0,196.2 0,144C0,109.6 15.3,19.9 16.1,15.2C19.3,-5.1 61.4,-5.4 64,16.3L64,157.5C65.3,160.9 79.1,160.7 80,157.5C81.4,132.2 87.9,18.3 88,15.7C91.3,-5.1 132.7,-5.1 135.9,15.7C136.1,18.4 142.5,132.2 143.9,157.5C144.8,160.7 158.7,160.9 159.9,157.5L159.9,16.3C162.5,-5.3 204.7,-5.1 207.9,15.2ZM327.1,300.9L312.1,486C310.9,500 322,512 336,512L392,512C405.3,512 416,501.3 416,488L416,24C416,10.8 405.3,0 392,0C309.5,0 170.6,178.5 327.1,300.9Z" style="fill:white;fill-rule:nonzero;"/>
    </g>
</svg>
